<svg xmlns="http://www.w3.org/2000/svg" width="50" height="100" viewBox="0 0 50 100"><defs><style>.a{fill:none;}</style></defs><path d="M22.346,6.474h-.5a10.015,10.015,0,0,0-3.545.519A1.948,1.948,0,0,0,17.274,8.98,1.947,1.947,0,0,0,18.4,10.975a6.127,6.127,0,0,0,2.241.291h15.2v4.541H20.71a8.789,8.789,0,0,1-4.394-.937q-2.742-1.587-2.742-5.723T15.793,3.6a11.2,11.2,0,0,1,6.052-1.412h.5Z"/><path d="M16.036,35.837Q13.5,33.374,13.5,28.716T16.036,21.6q3.11-3.3,8.964-3.3,5.972,0,8.964,3.3Q36.5,24.057,36.5,28.716t-2.536,7.121Q30.97,39.125,25,39.125,19.147,39.125,16.036,35.837ZM19.338,33A8.9,8.9,0,0,0,25,34.584,8.906,8.906,0,0,0,30.655,33a5.181,5.181,0,0,0,2-4.283,5.25,5.25,0,0,0-1.99-4.3A8.805,8.805,0,0,0,25,22.8a8.805,8.805,0,0,0-5.662,1.607,5.25,5.25,0,0,0-1.99,4.305A5.189,5.189,0,0,0,19.338,33Z"/><path d="M35.837,41.154v4.467H26.882l8.955,8.4v5.868L26.9,50.967,14.1,60.342V54.5l9.487-6.7-2.218-2.187H14.1V41.154Z"/><path d="M31.988,77.447v-11.5H27.374V76.5H23.6V65.947H18.012V77.978H14.1V61.509H35.837V77.447Z"/><path d="M35.276,93.933a5.36,5.36,0,0,1-1.518,2.034,6.758,6.758,0,0,1-1.829,1.093,6.078,6.078,0,0,1-2.285.4,6.517,6.517,0,0,1-3.045-.782,4.369,4.369,0,0,1-2.115-2.58,4.063,4.063,0,0,1-1.718,2.131,7.157,7.157,0,0,1-3.4.626h-1.46a10.978,10.978,0,0,0-2.02.12,1.813,1.813,0,0,0-1.238.838H14.1V92.8q.723-.207,1.165-.3a10.714,10.714,0,0,1,1.873-.192l2.02-.029a4.1,4.1,0,0,0,2.771-.719,3.657,3.657,0,0,0,.693-2.587V84.547H14.1V80.109H35.837V90.5A9.456,9.456,0,0,1,35.276,93.933Zm-3.214-9.386H26.224v4.887a5.2,5.2,0,0,0,.354,2.185,2.446,2.446,0,0,0,2.447,1.288,2.742,2.742,0,0,0,2.654-1.247,4.493,4.493,0,0,0,.383-2.1Z"/><rect class="a" width="50" height="100"/></svg>