<svg xmlns="http://www.w3.org/2000/svg" width="50" height="50" viewBox="0 0 50 50"><defs><style>.a{fill:none;}.b{fill:#333;}</style></defs><rect class="a" width="50" height="50"/><path class="b" d="M14.4,38.015a9.358,9.358,0,0,0,6.749-2.861.029.029,0,0,1,.021-.008h1.254a.414.414,0,0,1,.073.405l-2.15,6.7a.833.833,0,0,0,.734,1.158h7.849a.834.834,0,0,0,.736-1.158l-2.15-6.7a.415.415,0,0,1,.071-.405h1.253a.035.035,0,0,1,.022.008A9.394,9.394,0,1,0,35.6,19.226a9.132,9.132,0,0,0-1.47.152c-.12,0-.245-.006-.37-.014A9.393,9.393,0,1,0,15.605,15.99a9.261,9.261,0,0,0,.47,2.793c.044.209.074.407.123.625a9.4,9.4,0,0,0-1.438-.036c-.122,0-.239-.038-.365-.038-.092,0-.187.019-.279.022a9.133,9.133,0,0,0-1.124-.027,9.4,9.4,0,0,0,1.4,18.686Z"/></svg>