<svg xmlns="http://www.w3.org/2000/svg" width="50" height="50" viewBox="0 0 50 50"><defs><style>.a{fill:none;}.b{fill:#333;}</style></defs><rect class="a" width="50" height="50"/><path class="b" d="M14.192,40.045c.142.008.287.011.431.011a9.677,9.677,0,0,0,6.985-3.092.464.464,0,0,1,.442-.139l.011,0c.085.02.131.1.2.159l.142.263a.461.461,0,0,1,0,.178L20.1,44.6a.893.893,0,0,0,.787,1.241H29.3a.9.9,0,0,0,.79-1.241l-2.3-7.175a.362.362,0,0,1,0-.164l.173-.3c.057-.045.094-.119.167-.136l.006,0a.468.468,0,0,1,.445.139,9.683,9.683,0,0,0,6.985,3.092c.144,0,.289,0,.434-.011,7.511-.352,12.788-9.13,5.576-17.184L25.239,4.222a.191.191,0,0,0-.289,0L8.614,22.861C.985,31.158,6.681,39.693,14.192,40.045Z"/></svg>